<?xml version="1.0" standalone="no"?>
<!DOCTYPE svg PUBLIC "-//W3C//DTD SVG 20010904//EN"
 "http://www.w3.org/TR/2001/REC-SVG-20010904/DTD/svg10.dtd">
<svg version="1.0" xmlns="http://www.w3.org/2000/svg"
 width="250.000000pt" height="250.000000pt" viewBox="0 0 250.000000 250.000000"
 preserveAspectRatio="xMidYMid meet">
<metadata>
Created by potrace 1.11, written by Peter Selinger 2001-2013
</metadata>
<g transform="translate(0.000000,250.000000) scale(0.100000,-0.100000)"
fill="#000000" stroke="none">
<path d="M1168 2495 c-2 -2 -22 -7 -44 -11 -52 -8 -175 -65 -227 -106 -90 -70
-196 -211 -249 -333 -61 -138 -83 -255 -82 -425 2 -126 27 -270 60 -330 13
-25 13 -24 15 15 2 37 4 53 9 65 2 7 8 31 15 63 14 67 107 214 169 267 105 89
183 127 321 156 34 7 148 6 195 -1 25 -4 55 -8 67 -9 12 0 19 -3 17 -5 -2 -2
24 -15 59 -29 34 -14 64 -28 67 -31 3 -3 24 -19 47 -35 95 -64 183 -183 223
-301 35 -107 37 -290 2 -385 -3 -8 -6 -17 -6 -21 -1 -3 -17 -36 -36 -74 -46
-92 -161 -208 -252 -253 -298 -150 -717 -53 -1021 237 -198 189 -311 445 -326
739 -2 24 -89 -90 -126 -163 -106 -212 -74 -488 76 -659 34 -39 43 -56 45 -94
8 -100 25 -165 66 -247 90 -183 278 -311 485 -331 61 -6 73 -11 113 -46 190
-168 487 -193 707 -62 32 20 72 49 90 66 27 26 42 32 90 35 295 19 543 257
569 545 6 66 10 77 45 116 48 55 92 133 120 214 19 52 23 84 23 188 -1 110 -4
133 -26 192 -30 79 -80 165 -123 211 -20 21 -30 42 -30 62 2 127 -68 300 -162
400 -106 114 -281 195 -420 195 -23 0 -43 9 -61 26 -64 62 -190 130 -279 150
-35 8 -218 15 -225 9z"/>
</g>
</svg>
